<svg version="1.1" viewBox="0.0 0.0 960.0 960.0" fill="none" stroke="none" stroke-linecap="square" stroke-miterlimit="10" xmlns:xlink="http://www.w3.org/1999/xlink" xmlns="http://www.w3.org/2000/svg"><clipPath id="p.0"><path d="m0 0l960.0 0l0 960.0l-960.0 0l0 -960.0z" clip-rule="nonzero"/></clipPath><g clip-path="url(#p.0)"><path fill="#000000" fill-opacity="0.0" d="m0 0l960.0 0l0 960.0l-960.0 0z" fill-rule="evenodd"/><defs><radialGradient id="p.1" gradientUnits="userSpaceOnUse" gradientTransform="matrix(26.054222432490278 0.0 0.0 26.054222432490278 0.0 0.0)" spreadMethod="pad" cx="18.42311745221871" cy="18.42331892988114" fx="18.42311745221871" fy="18.42331892988114" r="26.054222106933594"><stop offset="0.0" stop-color="#fff6db"/><stop offset="1.0" stop-color="#fad15c"/></radialGradient></defs><path fill="url(#p.1)" d="m0 480.00525c0 -265.09668 214.90332 -480.0 480.0 -480.0c127.303894 0 249.3938 50.571285 339.41125 140.58875c90.017456 90.017456 140.58875 212.10733 140.58875 339.41125c0 265.09668 -214.90332 480.0 -480.0 480.0c-265.09668 0 -480.0 -214.90332 -480.0 -480.0z" fill-rule="evenodd"/><defs><radialGradient id="p.2" gradientUnits="userSpaceOnUse" gradientTransform="matrix(35.147927456138035 0.0 0.0 35.147927456138035 0.0 0.0)" spreadMethod="pad" cx="26.080994804879758" cy="1.22556630228966" fx="26.080994804879758" fy="1.22556630228966" r="35.147926330566406"><stop offset="0.0" stop-color="#fff6db"/><stop offset="0.24" stop-color="#fde49c"/><stop offset="0.54" stop-color="#fff2cc"/><stop offset="0.88" stop-color="#f1c232"/><stop offset="1.0" stop-color="#fff2cc"/></radialGradient></defs><path fill="url(#p.2)" d="m43.149605 479.84778c0 -241.22234 195.54932 -436.77167 436.77167 -436.77167c115.83905 0 226.9336 46.01688 308.84418 127.92746c81.91058 81.91057 127.92749 193.00516 127.92749 308.8442c0 241.22229 -195.54938 436.77167 -436.77167 436.77167c-241.22234 0 -436.77167 -195.54938 -436.77167 -436.77167z" fill-rule="evenodd"/><path fill="#ffffff" d="m118.18898 480.00525c0 -199.86621 162.02357 -361.88977 361.88977 -361.88977c95.979126 0 188.02722 38.127556 255.89471 105.99506c67.86749 67.86748 105.995056 159.91557 105.995056 255.8947c0 199.86621 -162.02356 361.88977 -361.88977 361.88977c-199.86618 0 -361.88977 -162.02356 -361.88977 -361.88977z" fill-rule="evenodd"/><path fill="#ffd966" d="m245.03937 480.00525c0 -129.80865 105.23071 -235.03937 235.03937 -235.03937c62.336304 0 122.11951 24.763 166.19794 68.84143c44.07843 44.07843 68.84143 103.86163 68.84143 166.19794c0 129.80865 -105.23071 235.03937 -235.03937 235.03937c-129.80865 0 -235.03937 -105.23071 -235.03937 -235.03937z" fill-rule="evenodd"/><path fill="#ffffff" d="m262.4919 408.34073l155.76947 -14.652618l61.789124 -146.67499l61.789093 146.67499l155.76947 14.652618l-117.581665 105.302704l34.48169 155.73083l-134.45859 -81.5943l-134.45862 81.5943l34.48172 -155.73083z" fill-rule="evenodd"/><path fill="#ffffff" d="m879.37006 748.03674l-128.0315 -127.12598l-130.70862 131.81104l129.37006 126.57477l77.79529 -59.055115z" fill-rule="evenodd"/></g></svg>