<svg version="1.1" viewBox="0.0 0.0 960.0 960.0" fill="none" stroke="none" stroke-linecap="square" stroke-miterlimit="10" xmlns:xlink="http://www.w3.org/1999/xlink" xmlns="http://www.w3.org/2000/svg"><clipPath id="p.0"><path d="m0 0l960.0 0l0 960.0l-960.0 0l0 -960.0z" clip-rule="nonzero"/></clipPath><g clip-path="url(#p.0)"><path fill="#000000" fill-opacity="0.0" d="m0 0l960.0 0l0 960.0l-960.0 0z" fill-rule="evenodd"/><path fill="#b7b7b7" d="m0 480.0c0 -265.09668 214.90332 -480.0 480.0 -480.0c127.303894 0 249.3938 50.571285 339.41125 140.58875c90.017456 90.017456 140.58875 212.10733 140.58875 339.41125c0 265.09668 -214.90332 480.0 -480.0 480.0c-265.09668 0 -480.0 -214.90332 -480.0 -480.0z" fill-rule="evenodd"/><path fill="#ffffff" d="m118.18898 480.07874c0 -199.86618 162.02357 -361.88977 361.88977 -361.88977c95.979126 0 188.02722 38.127563 255.89471 105.995056c67.86749 67.86751 105.995056 159.91557 105.995056 255.8947c0 199.86621 -162.02356 361.88977 -361.88977 361.88977c-199.86618 0 -361.88977 -162.02356 -361.88977 -361.88977z" fill-rule="evenodd"/><path fill="#b7b7b7" d="m245.03937 480.07874c0 -129.80865 105.23071 -235.03937 235.03937 -235.03937c62.336304 0 122.11951 24.763 166.19794 68.84143c44.07843 44.07843 68.84143 103.86163 68.84143 166.19794c0 129.80865 -105.23071 235.03937 -235.03937 235.03937c-129.80865 0 -235.03937 -105.23071 -235.03937 -235.03937z" fill-rule="evenodd"/><path fill="#ffffff" d="m421.063 480.1181c0 -32.615234 26.43988 -59.055115 59.055115 -59.055115c15.662384 0 30.683289 6.221863 41.7583 17.296844c11.074951 11.074982 17.296814 26.095886 17.296814 41.75827c0 32.615234 -26.43988 59.055115 -59.055115 59.055115c-32.615234 0 -59.055115 -26.43988 -59.055115 -59.055115z" fill-rule="evenodd"/><path fill="#ffffff" d="m566.65356 480.1181c0 -32.615234 26.43988 -59.055115 59.055115 -59.055115c15.6623535 0 30.683289 6.221863 41.75824 17.296844c11.075012 11.074982 17.296875 26.095886 17.296875 41.75827c0 32.615234 -26.43988 59.055115 -59.055115 59.055115c-32.615234 0 -59.055115 -26.43988 -59.055115 -59.055115z" fill-rule="evenodd"/><path fill="#ffffff" d="m275.47244 480.1181c0 -32.615234 26.43988 -59.055115 59.055115 -59.055115c15.662384 0 30.683289 6.221863 41.75827 17.296844c11.074982 11.074982 17.296844 26.095886 17.296844 41.75827c0 32.615234 -26.43988 59.055115 -59.055115 59.055115c-32.615234 0 -59.055115 -26.43988 -59.055115 -59.055115z" fill-rule="evenodd"/><path fill="#ffffff" d="m879.37006 748.1102l-128.0315 -127.12598l-130.70862 131.81104l129.37006 126.57477l77.79529 -59.055115z" fill-rule="evenodd"/></g></svg>