<svg version="1.1" viewBox="0.0 0.0 960.0 960.0" fill="none" stroke="none" stroke-linecap="square" stroke-miterlimit="10" xmlns:xlink="http://www.w3.org/1999/xlink" xmlns="http://www.w3.org/2000/svg"><clipPath id="p.0"><path d="m0 0l960.0 0l0 960.0l-960.0 0l0 -960.0z" clip-rule="nonzero"/></clipPath><g clip-path="url(#p.0)"><path fill="#000000" fill-opacity="0.0" d="m0 0l960.0 0l0 960.0l-960.0 0z" fill-rule="evenodd"/><path fill="#985dff" d="m0 480.0c0 -265.09668 214.90332 -480.0 480.0 -480.0c127.303894 0 249.3938 50.571285 339.41125 140.58875c90.017456 90.017456 140.58875 212.10733 140.58875 339.41125c0 265.09668 -214.90332 480.0 -480.0 480.0c-265.09668 0 -480.0 -214.90332 -480.0 -480.0z" fill-rule="evenodd"/><path fill="#ffffff" d="m118.18898 480.07874c0 -199.86618 162.02357 -361.88977 361.88977 -361.88977c95.979126 0 188.02722 38.127563 255.89471 105.995056c67.86749 67.86751 105.995056 159.91557 105.995056 255.8947c0 199.86621 -162.02356 361.88977 -361.88977 361.88977c-199.86618 0 -361.88977 -162.02356 -361.88977 -361.88977z" fill-rule="evenodd"/><path fill="#985dff" d="m245.03937 480.07874c0 -129.80865 105.23071 -235.03937 235.03937 -235.03937c62.336304 0 122.11951 24.763 166.19794 68.84143c44.07843 44.07843 68.84143 103.86163 68.84143 166.19794c0 129.80865 -105.23071 235.03937 -235.03937 235.03937c-129.80865 0 -235.03937 -105.23071 -235.03937 -235.03937z" fill-rule="evenodd"/><path fill="#ffffff" d="m879.37006 748.1102l-128.0315 -127.12598l-130.70862 131.81104l129.37006 126.57477l77.79529 -59.055115z" fill-rule="evenodd"/><path fill="#ffffff" d="m478.45715 271.25986c-40.917114 0 -74.0228 12.987701 -99.31702 38.963104c-25.29422 25.913391 -38.499268 59.978973 -39.615204 102.19675l83.97308 0c0 -23.061707 5.114624 -41.194885 15.343903 -54.399567c10.229279 -13.204651 24.736267 -19.807007 43.520935 -19.807007c15.808899 0 27.83606 4.370575 36.081482 13.111694c8.307373 8.741119 12.461121 21.480835 12.461121 38.219177c0 10.4149475 -2.324829 19.71402 -6.9745483 27.897186c-4.649658 8.1831665 -15.43689 18.691132 -32.361694 31.523834c-16.924805 12.832703 -29.540924 26.595337 -37.848328 41.287872c-8.245422 14.692505 -13.0190735 31.61679 -14.320984 50.77292l0 25.665405l76.998535 0l0 -22.038818c2.789856 -12.274719 6.3236084 -21.418823 10.601257 -27.432251c4.27771 -6.075348 10.508301 -12.646698 18.691711 -19.71399l33.19867 -24.270569c10.043274 -8.555145 17.854736 -16.831299 23.434326 -24.828522c5.57959 -7.9971924 9.764343 -16.304352 12.554138 -24.921478c2.789795 -8.679138 4.649658 -21.66684 5.57959 -38.963104c0 -32.174774 -12.523132 -59.08008 -37.569336 -80.71588c-24.984253 -21.697845 -59.7948 -32.546753 -104.43164 -32.546753zm-47.147675 329.7449l0 87.87622l89.831635 0l0 -87.87622z" fill-rule="evenodd"/></g></svg>