<svg version="1.1" viewBox="0.0 0.0 960.0 960.0" fill="none" stroke="none" stroke-linecap="square" stroke-miterlimit="10" xmlns:xlink="http://www.w3.org/1999/xlink" xmlns="http://www.w3.org/2000/svg"><clipPath id="p.0"><path d="m0 0l960.0 0l0 960.0l-960.0 0l0 -960.0z" clip-rule="nonzero"/></clipPath><g clip-path="url(#p.0)"><path fill="#000000" fill-opacity="0.0" d="m0 0l960.0 0l0 960.0l-960.0 0z" fill-rule="evenodd"/><path fill="#15cb78" d="m0 480.0c0 -265.09668 214.90332 -480.0 480.0 -480.0c127.303894 0 249.3938 50.571285 339.41125 140.58875c90.017456 90.017456 140.58875 212.10733 140.58875 339.41125c0 265.09668 -214.90332 480.0 -480.0 480.0c-265.09668 0 -480.0 -214.90332 -480.0 -480.0z" fill-rule="evenodd"/><path fill="#ffffff" d="m118.18898 480.07874c0 -199.86618 162.02357 -361.88977 361.88977 -361.88977c95.979126 0 188.02722 38.127563 255.89471 105.995056c67.86749 67.86751 105.995056 159.91557 105.995056 255.8947c0 199.86621 -162.02356 361.88977 -361.88977 361.88977c-199.86618 0 -361.88977 -162.02356 -361.88977 -361.88977z" fill-rule="evenodd"/><path fill="#15cb78" d="m245.03937 480.07874c0 -129.80865 105.23071 -235.03937 235.03937 -235.03937c62.336304 0 122.11951 24.763 166.19794 68.84143c44.07843 44.07843 68.84143 103.86163 68.84143 166.19794c0 129.80865 -105.23071 235.03937 -235.03937 235.03937c-129.80865 0 -235.03937 -105.23071 -235.03937 -235.03937z" fill-rule="evenodd"/><path fill="#ffffff" d="m303.70523 452.19446l88.11023 -88.11026l88.11023 88.11026l192.99216 -192.99213l88.11023 88.11023l-281.1024 281.10236z" fill-rule="evenodd"/><path fill="#ffffff" d="m879.37006 748.1102l-128.0315 -127.12598l-130.70862 131.81104l129.37006 126.57477l77.79529 -59.055115z" fill-rule="evenodd"/><path fill="#ffffff" d="m480.0 240.0c0 -132.54834 107.45166 -240.0 240.0 -240.0c63.651978 0 124.6969 25.285643 169.70563 70.29437c45.008728 45.008728 70.29437 106.053665 70.29437 169.70563c0 132.54834 -107.45166 240.0 -240.0 240.0c-132.54834 0 -240.0 -107.45166 -240.0 -240.0z" fill-rule="evenodd"/><path fill="#4a86e8" d="m560.62994 240.07874c0 -88.06114 71.387634 -159.44882 159.44879 -159.44882c42.288452 0 82.84491 16.799026 112.747375 46.701477c29.902405 29.902458 46.701477 70.458885 46.701477 112.74734c0 88.06116 -71.387695 159.44882 -159.44885 159.44882c-88.06116 0 -159.44879 -71.387665 -159.44879 -159.44882z" fill-rule="evenodd"/></g></svg>